<svg fill="#ffffff" width="42px" height="42px" viewBox="-5.28 -5.28 34.56 34.56" xmlns="http://www.w3.org/2000/svg" stroke="#ffffff" transform="rotate(0)matrix(1, 0, 0, 1, 0, 0)" stroke-width="0.00024000000000000003"><g id="SVGRepo_bgCarrier" stroke-width="0"><rect x="-5.28" y="-5.28" width="34.56" height="34.56" rx="3.8016" fill="#394874" strokewidth="0"></rect></g><g id="SVGRepo_tracerCarrier" stroke-linecap="round" stroke-linejoin="round" stroke="#CCCCCC" stroke-width="0.4800000000000001"></g><g id="SVGRepo_iconCarrier"><path d="M22,4.5a1,1,0,0,1-1,1H12a1,1,0,0,1,0-2h9A1,1,0,0,1,22,4.5Zm-1,4H14a1,1,0,0,0,0,2h7a1,1,0,0,0,0-2Zm0,5H16a1,1,0,0,0,0,2h5a1,1,0,0,0,0-2Zm0,5H18a1,1,0,0,0,0,2h3a1,1,0,0,0,0-2ZM6,2A1,1,0,0,0,5,3V18.586L3.707,17.293a1,1,0,0,0-1.414,1.414l3,3a1,1,0,0,0,1.416,0l3-3a1,1,0,0,0-1.414-1.414L7,18.586V3A1,1,0,0,0,6,2Z"></path></g></svg>
